<svg width="27" height="33" viewBox="0 0 27 33" fill="none" xmlns="http://www.w3.org/2000/svg">
<path d="M25.09 12.5456C23.8166 13.8485 22.1234 14.5 20.0102 14.5C17.897 14.5 16.1969 13.8485 14.91 12.5456C13.6367 11.2302 13 9.55146 13 7.5094C13 5.46734 13.6367 3.78859 14.91 2.47315C16.1969 1.15772 17.897 0.5 20.0102 0.5C22.1234 0.5 23.8166 1.15772 25.09 2.47315C26.3633 3.78859 27 5.46734 27 7.5094C27 9.55146 26.3633 11.2302 25.09 12.5456ZM17.0435 10.9295C17.7479 11.819 18.7436 12.2638 20.0305 12.2638C21.3174 12.2638 22.2995 11.8253 22.9768 10.9483C23.6541 10.0588 23.9927 8.91253 23.9927 7.5094C23.9927 6.10626 23.6541 4.95996 22.9768 4.07047C22.2995 3.18098 21.3174 2.73624 20.0305 2.73624C18.7436 2.73624 17.7479 3.18098 17.0435 4.07047C16.3527 4.95996 16.0073 6.10626 16.0073 7.5094C16.0073 8.9 16.3527 10.04 17.0435 10.9295Z" fill="#E7DECD"/>
<path d="M6.31687 14.5C4.34072 14.5 2.8075 14.1174 1.71721 13.3522C0.626917 12.5744 0.0545145 11.4704 0 10.0403H2.9029C2.9983 10.8432 3.30494 11.4203 3.82283 11.7715C4.35434 12.1228 5.1448 12.2984 6.19421 12.2984C7.02555 12.2984 7.70698 12.1604 8.2385 11.8844C8.77002 11.5959 9.03578 11.1568 9.03578 10.5672C9.03578 10.3539 9.0017 10.1658 8.93356 10.0027C8.87905 9.82706 8.75639 9.67652 8.56559 9.55107C8.37479 9.41308 8.21124 9.30645 8.07496 9.23118C7.93867 9.14337 7.68654 9.05555 7.31857 8.96774C6.9506 8.86738 6.67121 8.79839 6.48041 8.76075C6.28961 8.71057 5.93526 8.62903 5.41738 8.51613C4.79046 8.37814 4.27257 8.25896 3.86371 8.1586C3.46848 8.05824 3.02555 7.90143 2.53492 7.68817C2.05792 7.47491 1.67632 7.24283 1.39012 6.99194C1.11755 6.7285 0.88586 6.38979 0.69506 5.97581C0.504259 5.54928 0.408859 5.06631 0.408859 4.52688C0.408859 3.23477 0.919932 2.24373 1.94208 1.55376C2.97785 0.851254 4.3339 0.5 6.01022 0.5C7.67291 0.5 9.0017 0.863799 9.99659 1.5914C10.9915 2.319 11.5434 3.35394 11.6525 4.69624H8.8109C8.72913 4.04391 8.4293 3.54211 7.91141 3.19086C7.40716 2.83961 6.76661 2.66398 5.98978 2.66398C5.18569 2.66398 4.54515 2.80824 4.06814 3.09677C3.59114 3.3853 3.35264 3.76792 3.35264 4.24462C3.35264 4.75896 3.58433 5.1353 4.0477 5.37366C4.5247 5.61201 5.35605 5.85036 6.54174 6.08871C7.25043 6.2267 7.82964 6.35842 8.27939 6.48387C8.72913 6.59677 9.21295 6.76613 9.73083 6.99194C10.2624 7.2052 10.6712 7.44355 10.9574 7.70699C11.2572 7.97043 11.5026 8.32168 11.6934 8.76075C11.8978 9.18728 12 9.6828 12 10.2473C12 11.5771 11.4753 12.6183 10.4259 13.371C9.37649 14.1237 8.00681 14.5 6.31687 14.5Z" fill="#E7DECD"/>
<path d="M25.09 30.5456C23.8166 31.8485 22.1234 32.5 20.0102 32.5C17.897 32.5 16.1969 31.8485 14.91 30.5456C13.6367 29.2302 13 27.5515 13 25.5094C13 23.4673 13.6367 21.7886 14.91 20.4732C16.1969 19.1577 17.897 18.5 20.0102 18.5C22.1234 18.5 23.8166 19.1577 25.09 20.4732C26.3633 21.7886 27 23.4673 27 25.5094C27 27.5515 26.3633 29.2302 25.09 30.5456ZM17.0435 28.9295C17.7479 29.819 18.7436 30.2638 20.0305 30.2638C21.3174 30.2638 22.2995 29.8253 22.9768 28.9483C23.6541 28.0588 23.9927 26.9125 23.9927 25.5094C23.9927 24.1063 23.6541 22.96 22.9768 22.0705C22.2995 21.181 21.3174 20.7362 20.0305 20.7362C18.7436 20.7362 17.7479 21.181 17.0435 22.0705C16.3527 22.96 16.0073 24.1063 16.0073 25.5094C16.0073 26.9 16.3527 28.04 17.0435 28.9295Z" fill="#E7DECD"/>
<path d="M6.31687 32.5C4.34072 32.5 2.8075 32.1174 1.71721 31.3522C0.626917 30.5744 0.0545145 29.4704 0 28.0403H2.9029C2.9983 28.8432 3.30494 29.4203 3.82283 29.7715C4.35434 30.1228 5.1448 30.2984 6.19421 30.2984C7.02555 30.2984 7.70698 30.1604 8.2385 29.8844C8.77002 29.5959 9.03578 29.1568 9.03578 28.5672C9.03578 28.3539 9.0017 28.1658 8.93356 28.0027C8.87905 27.8271 8.75639 27.6765 8.56559 27.5511C8.37479 27.4131 8.21124 27.3065 8.07496 27.2312C7.93867 27.1434 7.68654 27.0556 7.31857 26.9677C6.9506 26.8674 6.67121 26.7984 6.48041 26.7608C6.28961 26.7106 5.93526 26.629 5.41738 26.5161C4.79046 26.3781 4.27257 26.259 3.86371 26.1586C3.46848 26.0582 3.02555 25.9014 2.53492 25.6882C2.05792 25.4749 1.67632 25.2428 1.39012 24.9919C1.11755 24.7285 0.88586 24.3898 0.69506 23.9758C0.504259 23.5493 0.408859 23.0663 0.408859 22.5269C0.408859 21.2348 0.919932 20.2437 1.94208 19.5538C2.97785 18.8513 4.3339 18.5 6.01022 18.5C7.67291 18.5 9.0017 18.8638 9.99659 19.5914C10.9915 20.319 11.5434 21.3539 11.6525 22.6962H8.8109C8.72913 22.0439 8.4293 21.5421 7.91141 21.1909C7.40716 20.8396 6.76661 20.664 5.98978 20.664C5.18569 20.664 4.54515 20.8082 4.06814 21.0968C3.59114 21.3853 3.35264 21.7679 3.35264 22.2446C3.35264 22.759 3.58433 23.1353 4.0477 23.3737C4.5247 23.612 5.35605 23.8504 6.54174 24.0887C7.25043 24.2267 7.82964 24.3584 8.27939 24.4839C8.72913 24.5968 9.21295 24.7661 9.73083 24.9919C10.2624 25.2052 10.6712 25.4435 10.9574 25.707C11.2572 25.9704 11.5026 26.3217 11.6934 26.7608C11.8978 27.1873 12 27.6828 12 28.2473C12 29.5771 11.4753 30.6183 10.4259 31.371C9.37649 32.1237 8.00681 32.5 6.31687 32.5Z" fill="#E7DECD"/>
</svg>
